<?xml version="1.0" encoding="UTF-8"?>
<svg width="27px" height="27px" viewBox="0 0 27 27" version="1.1" xmlns="http://www.w3.org/2000/svg" xmlns:xlink="http://www.w3.org/1999/xlink">
    <!-- Generator: Sketch 59 (86127) - https://sketch.com -->
    <title>问号</title>
    <desc>Created with Sketch.</desc>
    <g id="页面-1" stroke="none" stroke-width="1" fill="none" fill-rule="evenodd" opacity="0.767273676">
        <g id="Account-on-auction" transform="translate(-1106.000000, -22.000000)" fill="#FFFFFF" fill-rule="nonzero" stroke="#FFFFFF" stroke-width="0.5">
            <g id="问号" transform="translate(1107.000000, 23.000000)">
                <path d="M18.6813043,21.4835219 C16.5796716,22.9624478 14.0109904,23.6630083 11.2087972,23.3516426 C5.99358128,22.7289357 1.94597428,18.4477923 1.55677943,13.2326007 C1.16756018,6.46062974 7.00548303,0.856218928 13.8553076,1.71243786 C18.6034751,2.33512036 22.4175701,5.99355689 23.1959598,10.6638952 C23.6630083,13.4660884 23.040277,16.1125988 21.717034,18.2142559 C21.4835219,18.5256215 21.5613512,18.9148164 21.7948632,19.2261576 C22.184058,19.6153525 22.7289357,19.5375233 23.040277,19.0704748 C24.5970564,16.5017936 25.3754461,13.3882592 24.7527392,10.1190175 C23.7408375,5.13733796 19.7710353,1.16756018 14.8672094,0.233487646 C6.38277614,-1.32326739 -0.934072534,5.68224003 0.155682821,14.0888197 C0.856218928,19.7710597 5.44872799,24.2857151 11.0531144,24.908422 C14.2445025,25.2197633 17.2023785,24.4413736 19.5375477,22.7289113 C19.9267425,22.4175701 20.0045717,21.8726924 19.6932061,21.5613512 C19.3818648,21.2499855 18.99267,21.2499855 18.6813043,21.4835219 Z M13.6996248,12.454211 C13.1547471,12.7655523 12.7655523,13.2326007 12.454211,13.6996248" id="形状"></path>
                <path d="M16.7353544,10.0412127 C16.7353544,10.6638952 16.5796716,11.2087728 16.3461596,11.7536505 C16.0347939,12.5320402 15.4120871,13.1547471 14.7115266,13.6217956 C14.6336973,13.6996248 14.5558681,13.6996248 14.4780145,13.7774784 C13.8553076,14.0888197 13.1547471,14.3223561 12.3763818,14.3223561 L12.3763818,13.6996248 C12.6877231,13.1547471 13.1547471,12.7655523 13.6217956,12.454211 L13.6996248,12.3763818 C14.4780145,11.9093333 15.0228922,11.0531144 15.0228922,10.0412127 C15.0228922,8.2509212 13.3882592,6.92765381 11.5201385,7.39467788 C10.7417488,7.62821431 10.1190419,8.1730676 9.80770063,8.95145731 C9.65201781,9.41850577 9.5741642,9.80770063 9.5741642,10.2747247 C9.65201781,10.7417488 9.26282295,11.1309436 8.79577449,11.1309436 L8.71794528,11.1309436 C8.32875042,11.1309436 8.01740917,10.8196024 7.93955556,10.5082611 C7.86172635,9.88552985 7.93955556,9.18496935 8.2509212,8.48443324 C8.87360371,7.08333663 10.1190419,5.99358128 11.6758213,5.76006924 C14.4780145,5.52655721 16.7353544,7.55036071 16.7353544,10.0412127 L16.7353544,10.0412127 Z" id="路径"></path>
                <path d="M13.3104299,16.1126232 C13.3104299,15.178575 13.7774784,14.3223317 14.4780145,13.8553076 C14.5558681,13.8553076 14.5558681,13.7774784 14.6336973,13.7774784 L14.6336973,12.0650162 C14.3223317,12.1428454 14.0888197,12.2985282 13.7774784,12.454211 C13.7774784,12.454211 13.6996248,12.454211 13.6996248,12.5320402 C13.1547471,12.8434059 12.7655523,13.3104299 12.454211,13.7774784 C11.9871869,14.4780145 11.7536505,15.2564042 11.7536505,16.1126232 L13.3104299,16.1126232 Z" id="路径"></path>
                <path d="M12.5320402,16.8911505 C12.9619326,16.8911505 13.3104299,16.5426532 13.3104299,16.1127608 C13.3104299,15.6824551 12.9619326,15.3339578 12.5320402,15.3339578 C12.1021478,15.3339578 11.7536505,15.6824551 11.7536505,16.1123475 C11.7536505,16.5426532 12.1021478,16.8911505 12.5320402,16.8911505 Z M12.6098938,19.2263197 C13.0397862,19.2263197 13.3882835,18.8778224 13.3882835,18.44793 C13.3882835,18.0176242 13.0397862,17.6691269 12.6098938,17.6691269 C12.1800014,17.6691269 11.8315041,18.0176242 11.8315041,18.4475166 C11.8315041,18.8778224 12.1800014,19.2263197 12.6098938,19.2263197 Z" id="形状"></path>
            </g>
        </g>
    </g>
</svg>