<?xml version="1.0" encoding="UTF-8"?>
<svg width="22px" height="22px" viewBox="0 0 22 22" version="1.1" xmlns="http://www.w3.org/2000/svg" xmlns:xlink="http://www.w3.org/1999/xlink">
    <!-- Generator: Sketch 59 (86127) - https://sketch.com -->
    <title>telegram</title>
    <desc>Created with Sketch.</desc>
    <g id="盲盒活动" stroke="none" stroke-width="1" fill="none" fill-rule="evenodd" opacity="0.397478">
        <g id="NFT-Market" transform="translate(-921.000000, -1114.000000)">
            <g id="telegram" transform="translate(921.000000, 1114.000000)">
                <circle id="椭圆形备份-2" stroke="#FFFFFF" stroke-width="2" cx="11" cy="11" r="10"></circle>
                <g transform="translate(3.000000, 5.000000)" fill="#FFFFFF" fill-rule="nonzero" id="路径">
                    <path d="M12.8862328,0.156571132 L0.737005152,4.84143075 C-0.0914991978,5.17387606 -0.087589037,5.63669157 0.587078415,5.84332853 L3.70423569,6.81654464 L10.9228509,2.26205236 C11.2637696,2.0554154 11.5760067,2.16623007 11.3191779,2.3943785 L5.47075181,7.6724224 L5.53072221,7.77737069 L5.47075181,7.67307424 L5.25563997,10.8880142 L5.25563996,10.8880142 C5.50316459,10.884932 5.73565302,10.7686878 5.88663392,10.5725172 L7.40218647,9.09933189 L10.5538907,11.4290573 C11.1340396,11.7484644 11.5525285,11.5828942 11.6972403,10.889975 L13.7662167,1.13956651 C13.9780686,0.290202238 13.4422462,-0.0950416997 12.887519,0.156572135"></path>
                </g>
            </g>
        </g>
    </g>
</svg>