<?xml version="1.0" encoding="UTF-8"?>
<svg width="18px" height="21px" viewBox="0 0 18 21" version="1.1" xmlns="http://www.w3.org/2000/svg" xmlns:xlink="http://www.w3.org/1999/xlink">
    <!-- Generator: Sketch 59 (86127) - https://sketch.com -->
    <title>市场</title>
    <desc>Created with Sketch.</desc>
    <g id="盲盒活动" stroke="none" stroke-width="1" fill="none" fill-rule="evenodd">
        <g id="切换" transform="translate(-22.000000, -158.000000)">
            <g id="市场" transform="translate(22.000000, 158.000000)">
                <polygon id="路径-2" fill="#FED836" points="1.5 12 3 13 3 17 15 17 15 13 16.5 12 16.5 19.5 1.5 19.5"></polygon>
                <path d="M4.59965747,9.21783642 C3.78903119,9.21783642 3.13220796,9.87103174 3.13220796,10.6772011 C3.13220796,11.4833704 3.7890336,12.1365657 4.59967923,12.1365657 C5.41032485,12.1365657 6.06715049,11.4833704 6.06715049,10.6772011 C6.06715049,9.87103174 5.41032485,9.21783642 4.59967923,9.21783642 L4.59965747,9.21783642 Z M16.3435461,6.29909743 L14.1402981,6.29909743 L14.1402981,5.56734252 C14.1402775,2.74784535 11.841412,0.457500885 9.00205676,0.457500885 C6.16276439,0.457500885 3.8638396,2.74370262 3.8638396,5.56734252 L3.8638396,6.29909743 L1.66057222,6.29909743 C0.849926596,6.29909743 0.193100954,6.95229274 0.193100954,7.75846209 L0.193100954,19.4375269 C0.193100954,20.2436963 0.849926596,20.8968916 1.66057222,20.8968916 L16.3191393,20.8968916 C17.1297656,20.8968916 17.806863,20.2436963 17.806863,19.4375269 L17.806863,7.75846209 C17.8110095,6.95229274 17.1541845,6.29909743 16.3435389,6.29909743 L16.3435461,6.29909743 Z M5.14911295,5.38501651 C5.14911295,3.36751694 6.97339551,1.73453228 9.00206885,1.73453228 C11.030747,1.73453228 12.8550247,3.36751936 12.8550247,5.38501651 L12.8550247,6.29907568 L5.14911295,6.29907568 L5.14911295,5.38501651 L5.14911295,5.38501651 Z M16.5055331,18.8678122 C16.5055331,19.2729707 16.1771215,19.5995889 15.7697153,19.5995889 L2.21419217,19.5995889 C1.80678591,19.5995889 1.4783743,19.2729707 1.4783743,18.8678122 L1.4783743,8.32403409 C1.4783743,7.91887563 1.80678591,7.59227918 2.21419217,7.59227918 L15.7697153,7.59227918 C16.1771215,7.59227918 16.5055331,7.91887563 16.5055331,8.32403409 L16.5055331,18.8678122 Z M13.4044802,9.21783884 C12.5938346,9.21783884 11.937009,9.87103415 11.937009,10.6772035 C11.937009,11.4833728 12.5938346,12.1365682 13.4044802,12.1365682 C14.2151065,12.1365682 14.8719515,11.4833728 14.8719515,10.6772035 C14.8719515,9.87103415 14.2151065,9.21783884 13.4044802,9.21783884 Z" id="形状" stroke="#000000" stroke-width="0.2" fill="#000000" fill-rule="nonzero"></path>
            </g>
        </g>
    </g>
</svg>