<?xml version="1.0" encoding="UTF-8"?>
<svg width="22px" height="22px" viewBox="0 0 22 22" version="1.1" xmlns="http://www.w3.org/2000/svg" xmlns:xlink="http://www.w3.org/1999/xlink">
    <!-- Generator: Sketch 59 (86127) - https://sketch.com -->
    <title>推特</title>
    <desc>Created with Sketch.</desc>
    <g id="盲盒活动" stroke="none" stroke-width="1" fill="none" fill-rule="evenodd" opacity="0.397478">
        <g id="NFT-Market" transform="translate(-881.000000, -1114.000000)">
            <g id="推特" transform="translate(881.000000, 1114.000000)">
                <circle id="椭圆形备份" stroke="#FFFFFF" stroke-width="2" cx="11" cy="11" r="10"></circle>
                <g transform="translate(5.000000, 6.000000)" fill="#FFFFFF" fill-rule="nonzero" id="路径">
                    <path d="M12.9997612,1.29307239 C12.5214013,1.50483045 12.0082181,1.6484273 11.4687936,1.71269105 C12.0193646,1.38347582 12.4421317,0.859971303 12.6403946,0.238103392 C12.1255864,0.543438709 11.5544871,0.764769044 10.9469141,0.885311177 C10.4606323,0.367341824 9.76815297,0.0429127355 9.00106321,0.0429127355 C7.52811325,0.0429127355 6.33425737,1.23678131 6.33425737,2.70899494 C6.33425737,2.91757917 6.35806111,3.12146612 6.40330726,3.31656791 C4.18785839,3.20472208 2.22300259,2.14341811 0.907880939,0.529943576 C0.677841609,0.924222355 0.546902004,1.38267601 0.546902004,1.87050666 C0.546902004,2.79542473 0.959754046,3.61167079 1.67526269,4.08991647 C1.23818796,4.0757104 0.409665516,3.95590459 0.409665516,3.75599127 L0.409665516,3.78929112 C0.409665516,5.08071059 1.38730728,6.15865813 2.60652842,6.4038049 C2.38283676,6.46488212 2.17604257,6.49736946 1.9325335,6.49736946 C1.76032138,6.49736946 1.60820597,6.47991339 1.44477902,6.44897488 C1.78430286,7.50873002 2.7758587,8.27899361 3.94268623,8.30115965 C3.03052696,9.01588118 1.88385961,9.44263461 0.63461402,9.44263461 C0.418793456,9.44263461 0.208838134,9.42915217 0.000190429909,9.40534843 C1.18055118,10.1613298 2.58226765,10.6031145 4.08860632,10.6031145 C8.99311593,10.6031145 11.6754101,6.5401908 11.6754101,3.01676776 C11.6754101,2.9009229 11.6732773,2.78591593 11.6677548,2.67170876 C12.1889107,2.29572395 12.6403057,1.82607301 12.9980474,1.2914347 L12.9997612,1.29307239 Z"></path>
                </g>
            </g>
        </g>
    </g>
</svg>