<?xml version="1.0" encoding="UTF-8"?>
<svg width="22px" height="22px" viewBox="0 0 22 22" version="1.1" xmlns="http://www.w3.org/2000/svg" xmlns:xlink="http://www.w3.org/1999/xlink">
    <!-- Generator: Sketch 59 (86127) - https://sketch.com -->
    <title>账户</title>
    <desc>Created with Sketch.</desc>
    <g id="盲盒活动" stroke="none" stroke-width="1" fill="none" fill-rule="evenodd">
        <g id="切换" transform="translate(-20.000000, -294.000000)">
            <g id="账户" transform="translate(21.000000, 295.000000)">
                <path d="M3.5,16 C3.83333333,14 4.83333333,12.5 6.5,11.5 C5,10 5,8 5.5,6.5 C6,5 7.5,3 10,3.5 C12.5,4 13.5,7.5 13.5,9 C13.5,10 13.1666667,10.6666667 12.5,11" id="路径-3" stroke="#FED836" stroke-width="2"></path>
                <path d="M11,10 L13,13 C14.6666667,10.6666667 15.3333333,8.83333333 15,7.5 C14.6666667,6.16666667 13.8333333,5.66666667 12.5,6 L11,5.5 L11,10 Z" id="路径-4" fill="#FFFFFF" fill-rule="nonzero"></path>
                <path d="M14,13.5 C14,14.5 13.5,16 12,18.5 C14,18.5 16,16.5 18,14.5 C15,12.5 14.5,13.5 14,13.5 Z" id="路径-5" fill="#FED836"></path>
                <path d="M10.0000116,-6.48047717e-07 L10.0000112,-6.48047717e-07 C4.47715321,-6.48047717e-07 -4.37114068e-07,4.47715365 -4.37114068e-07,10.0000116 C-4.37114068e-07,15.5228696 4.47715321,20.0000233 10.0000112,20.0000233 C15.5228692,20.0000233 20.0000231,15.5228696 20.0000231,10.0000116 L20.0000231,10.0002063 C19.992642,4.48045378 15.5199593,0.00759701704 10.0002068,-6.48047717e-07 L10.0000116,-6.48047717e-07 Z M16.2877533,16.181679 L16.0321085,16.453652 L15.9641201,16.0946672 L15.9641202,16.0946676 C15.7755727,15.0693051 15.3270335,14.1094895 14.6614234,13.3070667 L14.6614234,13.3070667 C14.4427962,13.0673575 14.071243,13.0502657 13.8315318,13.2688917 C13.6061468,13.4744525 13.5756038,13.8183201 13.7612269,14.0603887 L13.7612272,14.0603892 C14.4917886,14.9389214 14.8920254,16.0453329 14.8925958,17.1879319 L14.8925958,17.187932 C14.8939318,17.2060454 14.8939318,17.2242325 14.8925958,17.2423458 L14.8925958,17.3456662 L14.8055644,17.4027952 L14.8055644,17.4027952 C11.8817329,19.3099224 8.10741208,19.3099224 5.18358055,17.4027952 L5.0965492,17.3456857 L5.0965492,17.190666 L5.0965492,17.1906668 C5.09654879,14.4870503 7.28825097,12.2953486 9.99186739,12.2953486 L9.99186733,12.2953486 C12.319956,12.3014802 14.2122238,10.4191608 14.2183566,8.09106634 C14.2244882,5.76297769 12.3421689,3.87070986 10.0140744,3.86457704 C7.68598574,3.85844545 5.79371791,5.74076477 5.78758509,8.06885928 C5.78416307,9.36815571 6.38010531,10.5964403 7.40277838,11.3978866 L7.64482944,11.5855431 L7.37285647,11.7188049 L7.37285686,11.7188047 C5.63069468,12.5602042 4.39205261,14.1794326 4.03589985,16.0810754 L3.96791149,16.4400602 L3.71226666,16.1681068 L3.71226596,16.1681061 C2.08395548,14.5286003 1.17157941,12.3107188 1.17485185,10.000013 L1.17485185,9.99970476 C1.16903072,5.12571471 5.11545082,1.1698312 9.98944086,1.16400443 C14.8634309,1.15818131 18.8193144,5.10460141 18.8251411,9.97859145 C18.8279108,12.2996098 17.9162196,14.5282842 16.2875341,16.1818995 L16.2877533,16.181679 Z M6.97035954,8.08268519 L6.97035954,8.08283978 C6.97177352,6.41110932 8.32812479,5.05705501 9.99985525,5.05846017 C11.6715857,5.05987525 13.02564,6.41622652 13.0242349,8.08795698 C13.0228207,9.75862689 11.6681248,11.1122574 9.9974529,11.1123355 L9.99745276,11.1123355 C8.32528285,11.110837 6.97051564,9.75485345 6.97051564,8.08268353 L6.97035954,8.08268519 Z" id="形状" stroke="#000000" stroke-width="0.3" fill="#000000" fill-rule="nonzero"></path>
            </g>
        </g>
    </g>
</svg>