<?xml version="1.0" encoding="UTF-8"?>
<svg width="20px" height="21px" viewBox="0 0 20 21" version="1.1" xmlns="http://www.w3.org/2000/svg" xmlns:xlink="http://www.w3.org/1999/xlink">
    <!-- Generator: Sketch 59 (86127) - https://sketch.com -->
    <title>拍卖</title>
    <desc>Created with Sketch.</desc>
    <g id="NFT-Market" stroke="none" stroke-width="1" fill="none" fill-rule="evenodd">
        <g id="切换" transform="translate(-21.000000, -227.000000)">
            <g id="拍卖" transform="translate(21.000000, 227.000000)">
                <path d="M8,9 C8.66666667,9.33333333 9.33333333,9.5 10,9.5 C10.6666667,9.5 11.3333333,9.33333333 12,9 L12,20 L8,20 L8,9 Z" id="矩形" fill="#FED836"></path>
                <path d="M2,1 L18,1 C18.5522847,1 19,1.44771525 19,2 L19,2.77122397 C19.0000295,3.32352498 18.552301,3.77125342 18,3.77125342 C17.9364447,3.77125342 17.8730341,3.76519472 17.8106288,3.75315953 C15.2070859,3.25105318 12.6035429,3 10,3 C7.39646812,3 4.79293624,3.25105105 2.18940437,3.75315314 C1.64709828,3.85777938 1.12268138,3.50293226 1.01809392,2.96061869 C1.00605871,2.89821295 1,2.83480201 1,2.77124635 L1,2 C1,1.44771525 1.44771525,1 2,1 Z" id="矩形" fill="#FED836"></path>
                <path d="M12.3784977,4.90668407 L7.57607217,4.90668407 L7.5760722,4.90668407 C7.19510085,4.9074022 6.88644086,5.21606266 6.88572226,5.59703402 L6.88572226,5.59703818 C6.8864427,5.97800954 7.19510494,6.28666748 7.57607629,6.28738404 L12.3785018,6.28738404 L12.3785018,6.28738404 C12.7597712,6.26392965 13.0498374,5.93583658 13.0263828,5.55456513 C13.0049413,5.2060166 12.7270483,4.92812585 12.3785018,4.90668407 L12.3784977,4.90668407 Z M19.5312622,3.28977847 C19.5312622,3.28977847 19.5808525,1.46276547 18.1257665,0.422678856 C17.6259482,0.0481402116 16.1708628,-0.325091884 15.0759542,0.506199398 C14.6453013,0.838977465 14.2433578,1.10780812 13.4942825,1.10780812 L6.4589849,1.10780812 C5.70990965,1.10780812 5.30796614,0.838975423 4.87861776,0.506199398 C3.78371528,-0.325092496 2.32862171,0.0494461483 1.82880542,0.422678856 C0.373720006,1.46277159 0.421818131,3.28977847 0.421818131,3.28977847 L0.421818131,7.84165278 C0.421818131,7.84165278 0.373719802,9.66866578 1.82880542,10.7087524 C2.32731924,11.083291 3.78370916,11.4578276 4.87861776,10.6265368 C5.30796614,10.2924542 5.70990761,10.0236215 6.4589849,10.0236235 C6.51118521,10.0236235 6.55816566,10.0170985 6.59992583,10.0040484 L7.08930402,10.0040484 L7.08930402,18.0155015 L7.08930394,18.0161536 C7.0893037,19.6111439 8.38229764,20.9041376 9.97728792,20.9041376 C11.5722782,20.9041376 12.8652719,19.6111439 12.8652719,18.0161536 L12.8652719,10.0053537 L13.3546501,10.0053537 C13.3964105,10.0184038 13.4420858,10.0249289 13.4942861,10.0249289 C14.2433614,10.0249289 14.6453049,10.2937616 15.0759578,10.6265376 C16.1708602,11.4578295 17.6259538,11.0832908 18.1257701,10.7087532 C19.5808555,9.66866048 19.5312658,7.8416536 19.5312658,7.8416536 L19.5312658,3.28977929 L19.5312622,3.28977847 Z M18.1518669,7.84165278 C18.1518669,9.79133646 16.519301,10.2232877 15.2142953,9.17015196 C14.500456,8.5946436 13.6926555,8.58942352 13.3272524,8.62465748 L12.1762337,8.62465748 L12.1762337,8.62465748 C11.7952624,8.62537561 11.4866024,8.93403607 11.4858838,9.31500743 L11.4858838,18.0115823 L11.4858838,18.0115819 C11.4610238,18.8443825 10.7657527,19.4993474 9.93295213,19.4744883 C9.13458119,19.450656 8.49314927,18.8086688 8.47000701,18.0102774 L8.47000701,9.31500915 L8.47000701,9.31500494 C8.46928655,8.93403359 8.16062433,8.62537564 7.77965298,8.62465908 L6.62732971,8.62465908 C6.2619267,8.5894239 5.45412615,8.59464397 4.7402869,9.17015356 C3.43527704,10.224602 1.8027153,9.79264256 1.8027153,7.84165439 L1.8027153,3.28978007 C1.8027153,1.3400964 3.43528112,0.908145123 4.7402869,1.9612809 C5.57940788,2.63988619 6.55033518,2.52634911 6.77740729,2.4885041 L13.1771708,2.4885041 C13.4042429,2.52634931 14.3738637,2.63988517 15.2142912,1.9612809 C16.5193011,0.90683245 18.1518669,1.33879189 18.1518669,3.28978007 L18.1518669,7.84165439 L18.1518669,7.84165278 Z" id="形状" fill="#000000" fill-rule="nonzero"></path>
            </g>
        </g>
    </g>
</svg>