<?xml version="1.0" encoding="UTF-8"?>
<svg width="24px" height="19px" viewBox="0 0 24 19" version="1.1" xmlns="http://www.w3.org/2000/svg" xmlns:xlink="http://www.w3.org/1999/xlink">
    <!-- Generator: Sketch 59 (86127) - https://sketch.com -->
    <title>提交</title>
    <desc>Created with Sketch.</desc>
    <g id="盲盒活动" stroke="none" stroke-width="1" fill="none" fill-rule="evenodd">
        <g id="切换" transform="translate(-19.000000, -228.000000)">
            <g id="提交" transform="translate(20.000000, 228.000000)">
                <path d="M15.9809377,5.49740663 C18.3874349,5.49740663 20.3402481,7.41076912 20.3402481,9.7778155 C20.3402481,12.1448619 19.1684019,13.6190476 16.7619048,13.6190476 L16.2380952,13.6190476 C17.9542039,13.6190476 19.3809524,11.6389015 19.3809524,9.95238095 C19.3809524,8.26586041 17.6970463,6.72038059 15.9809377,6.72038059 C15.7935465,6.72038059 15.6160181,6.74010598 15.4384896,6.76969406 C15.2708238,6.79928214 15.0932953,6.76969406 14.9552176,6.66120443 C14.8171399,6.5625775 14.7283757,6.40477441 14.6987876,6.23710862 C14.4324949,4.43223576 12.8643266,3.08104678 11.0002776,3.08104678 C9.14609129,3.08104678 7.56806037,4.42237306 7.30176765,6.23710862 C7.28204227,6.40477441 7.18341534,6.5625775 7.04533763,6.66120443 C6.90725992,6.75983136 6.72973145,6.79928214 6.56206566,6.76969406 C6.38453718,6.74010598 6.2070087,6.72038059 6.01961753,6.72038059 C4.30350891,6.72038059 2.61904762,8.26586041 2.61904762,9.95238095 C2.61904762,11.6389015 4.03593344,13.6190476 5.76190476,13.6190476 L5.23809524,13.6190476 C2.83159809,13.6190476 1.68003251,12.1448619 1.68003251,9.7778155 C1.68003251,7.41076912 3.63284577,5.49740663 6.03934292,5.49740663 L6.19714601,5.49740663 C6.75931953,3.3473395 8.73185818,1.83834743 11.0002776,1.83834743 C13.2686971,1.83834743 15.2412357,3.33747681 15.8132719,5.49740663 L15.9809377,5.49740663 Z" id="路径" stroke="#FED836" stroke-width="1.3" fill="#FED836" fill-rule="nonzero"></path>
                <path d="M16.819544,4.48591364 C19.6313568,4.48591364 21.9130737,6.72153529 21.9130737,9.48725279 C21.9130737,12.2529703 19.6313568,14.4885919 16.819544,14.4885919 L16.0935431,14.4885919 C15.8976382,14.4885919 15.713257,14.419449 15.5864949,14.2811631 C15.4482091,14.1428773 15.3675423,13.9584961 15.3675423,13.7741149 C15.3675423,13.3823049 15.6902093,13.0596379 16.0935431,13.0596379 L16.819544,13.0596379 C18.8246892,13.0596379 20.4495482,11.4578265 20.4495482,9.48725279 C20.4495482,7.51667907 18.8246892,5.91486768 16.819544,5.91486768 C16.6005914,5.91486768 16.3931625,5.93791533 16.1857337,5.9724868 C15.9898287,6.00705827 15.7823999,5.9724868 15.6210664,5.84572475 C15.4597329,5.73048652 15.3560185,5.54610535 15.321447,5.35020036 C15.0103038,3.24134076 13.1780159,1.66257702 11.0000134,1.66257702 C8.8335347,1.66257702 6.98972303,3.22981694 6.67857981,5.35020036 C6.65553216,5.54610535 6.54029393,5.73048652 6.37896041,5.84572475 C6.21762689,5.96096297 6.01019808,6.00705827 5.81429309,5.9724868 C5.60686428,5.93791533 5.39943546,5.91486768 5.18048283,5.91486768 C3.17533764,5.91486768 1.5504786,7.51667907 1.5504786,9.48725279 C1.5504786,11.4578265 3.17533764,13.0596379 5.19200665,13.0596379 L5.9180075,13.0596379 C6.3213413,13.0596379 6.64400834,13.3823049 6.64400834,13.7741149 C6.64400834,14.1659249 6.3213413,14.4885919 5.9180075,14.4885919 L5.19200665,14.4885919 C2.38019386,14.4885919 0.110000738,12.2529703 0.110000738,9.48725279 C0.110000738,6.72153529 2.39171768,4.48591364 5.20353047,4.48591364 L5.38791164,4.48591364 C6.04476955,1.97372024 8.34953413,0.210575331 11.0000134,0.210575331 C13.6504927,0.210575331 15.9552573,1.96219642 16.623639,4.48591364 L16.819544,4.48591364 Z" id="路径" stroke="#000000" stroke-width="0.3" fill="#000000" fill-rule="nonzero"></path>
                <circle id="椭圆形" fill="#FED836" cx="11.0417439" cy="16.1068733" r="2.0952381"></circle>
                <path d="M11.7260143,15.8253554 C11.7260143,16.2171654 11.4033472,16.5398324 11.0000134,16.5398324 C10.5966796,16.5398324 10.2740126,16.2171654 10.2740126,15.8253554 L10.2740126,10.2017298 C10.2740126,9.80991983 10.5966796,9.48725279 11.0000134,9.48725279 C11.4033472,9.48725279 11.7260143,9.80991983 11.7260143,10.2017298 L11.7260143,15.8253554 Z" id="路径" stroke="#000000" stroke-width="0.3" fill="#000000" fill-rule="nonzero"></path>
                <path d="M8.99486822,13.5321146 C8.82201088,13.7395435 8.55696295,13.831734 8.30343884,13.7856387 C8.03839092,13.7395435 7.8309621,13.5551623 7.73877152,13.3016382 C7.65810476,13.0481141 7.7272477,12.7715423 7.91162886,12.5871612 L10.4583937,9.72925307 C10.5966796,9.57944338 10.7925846,9.48725279 11.0000134,9.48725279 C11.2074422,9.48725279 11.4033472,9.57944338 11.5416331,9.72925307 L14.088398,12.5871612 C14.3303982,12.8867806 14.2958268,13.3246858 14.0077312,13.5782099 C13.7196356,13.831734 13.2702065,13.8086864 13.0051586,13.5321146 L11.0000134,11.296493 L8.99486822,13.5321146 L8.99486822,13.5321146 Z" id="路径" stroke="#000000" stroke-width="0.3" fill="#000000" fill-rule="nonzero"></path>
            </g>
        </g>
    </g>
</svg>