<?xml version="1.0" encoding="UTF-8"?>
<svg width="22px" height="22px" viewBox="0 0 22 22" version="1.1" xmlns="http://www.w3.org/2000/svg" xmlns:xlink="http://www.w3.org/1999/xlink">
    <!-- Generator: Sketch 59 (86127) - https://sketch.com -->
    <title>公众号</title>
    <desc>Created with Sketch.</desc>
    <g id="盲盒活动" stroke="none" stroke-width="1" fill="none" fill-rule="evenodd" opacity="0.397478">
        <g id="NFT-Market" transform="translate(-961.000000, -1114.000000)">
            <g id="公众号" transform="translate(961.000000, 1114.000000)">
                <circle id="椭圆形备份-3" stroke="#FFFFFF" stroke-width="2" cx="11" cy="11" r="10"></circle>
                <g transform="translate(4.000000, 5.000000)" fill="#FFFFFF" fill-rule="nonzero" id="形状">
                    <path d="M9.47801103,3.47439934 C9.63705614,3.47439934 9.79608757,3.48615717 9.95569323,3.50239938 C9.52728452,1.50430721 7.3920086,0.022547672 4.95600577,0.022547672 C2.23327604,0.022547672 2.4424935e-15,1.87727639 2.4424935e-15,4.23711312 C2.4424935e-15,5.59847799 0.740879768,6.71791874 1.98127574,7.58535921 L1.48736501,9.07776915 L3.22168539,8.20528376 C3.84160994,8.32623898 4.34112615,8.45167857 4.95600577,8.45167857 C5.1094454,8.45167857 5.26344558,8.44664732 5.41688521,8.42984456 C5.317764,8.10055707 5.26344558,7.74944924 5.26344558,7.39272226 C5.2628987,5.23055373 7.12377977,3.47439934 9.47801103,3.47439934 Z M6.81073449,2.12983723 C7.18369,2.12983723 7.43064537,2.3767926 7.43064537,2.74976178 C7.43064537,3.12273097 7.18369,3.36967266 6.81073449,3.36967266 C6.43721843,3.36967266 6.06424924,3.1227173 6.06424924,2.74976178 C6.06985472,2.37735315 6.44281023,2.12983723 6.81073449,2.12983723 L6.81073449,2.12983723 Z M3.34264061,3.37023321 C2.96912455,3.37023321 2.59615536,3.12327784 2.59615536,2.75032233 C2.59615536,2.37736682 2.96912455,2.13039778 3.34264061,2.13039778 C3.71560979,2.13039778 3.96200461,2.37735315 3.96200461,2.75032233 C3.96200461,3.11768604 3.71560979,3.37023321 3.34264061,3.37023321 L3.34264061,3.37023321 Z M14.0000163,7.33784329 C14.0000163,5.35711443 12.0187405,3.74320239 9.79049577,3.74320239 C7.43064537,3.74320239 5.57593032,5.35711443 5.57593032,7.33784329 C5.57593032,9.32472451 7.43120591,10.9330447 9.79049577,10.9330447 C10.2844065,10.9330447 10.7833758,10.806484 11.2772866,10.6860894 L12.6386514,11.4325746 L12.2656822,10.192165 C13.2591365,9.44567973 14.0000163,8.45167857 14.0000163,7.33784329 L14.0000163,7.33784329 Z M8.42408597,6.71791874 C8.17769116,6.71791874 7.93017524,6.47152393 7.93017524,6.22400801 C7.93017524,5.97759952 8.17713061,5.73008361 8.42408597,5.73008361 C8.79760203,5.73008361 9.04401052,5.97703898 9.04401052,6.22400801 C9.04401052,6.47096338 8.79761571,6.71791874 8.42408597,6.71791874 Z M11.151847,6.71791874 C10.9048916,6.71791874 10.6579362,6.47152393 10.6579362,6.22400801 C10.6579362,5.97759952 10.904331,5.73008361 11.151847,5.73008361 C11.5248161,5.73008361 11.7717715,5.97703898 11.7717715,6.22400801 C11.7717715,6.47096338 11.5192107,6.71791874 11.151847,6.71791874 Z"></path>
                </g>
            </g>
        </g>
    </g>
</svg>