<?xml version="1.0" encoding="UTF-8"?>
<svg width="22px" height="22px" viewBox="0 0 22 22" version="1.1" xmlns="http://www.w3.org/2000/svg" xmlns:xlink="http://www.w3.org/1999/xlink">
    <!-- Generator: Sketch 59 (86127) - https://sketch.com -->
    <title>微博</title>
    <desc>Created with Sketch.</desc>
    <g id="盲盒活动" stroke="none" stroke-width="1" fill="none" fill-rule="evenodd" opacity="0.397478">
        <g id="NFT-Market" transform="translate(-841.000000, -1114.000000)">
            <g id="微博" transform="translate(841.000000, 1114.000000)">
                <circle id="椭圆形" stroke="#FFFFFF" stroke-width="2" cx="11" cy="11" r="10"></circle>
                <g transform="translate(3.000000, 4.000000)" fill="#FFFFFF" fill-rule="nonzero">
                    <path d="M14.6537898,1.51764982 C13.636652,0.373368574 12.1109372,-0.0504380208 10.75476,0.246226759 C10.4157141,0.330988241 10.2461911,0.62765384 10.2885722,0.96669977 C10.3733337,1.3057457 10.6699993,1.47526867 11.0090452,1.43288751 C11.9838035,1.2209834 13.0857069,1.517649 13.806175,2.32288349 C14.526648,3.1281188 14.7385521,4.23001071 14.3995062,5.20477226 C14.3571254,5.37429523 14.3571254,5.50143704 14.441887,5.67096001 C14.5266485,5.79810231 14.6537911,5.92524527 14.7809329,5.96762479 C15.0775977,6.05238627 15.4166437,5.8828633 15.5437871,5.5861977 C15.9252142,4.18763283 15.6709294,2.66192942 14.6537911,1.51764982 L14.6537898,1.51764982 Z" id="路径"></path>
                    <path d="M12.8314216,5.2471616 C13.0857069,5.33192308 13.3823717,5.20478077 13.4671323,4.90811567 C13.6790364,4.23002381 13.5518938,3.50955079 13.0433241,2.95859256 C12.5347552,2.40764252 11.8142822,2.1957384 11.1361969,2.32288185 C10.8395321,2.36526268 10.6700091,2.66192778 10.7547698,2.91621305 C10.7971506,3.21287783 11.0938157,3.3824008 11.348101,3.29764013 C11.6871469,3.21287865 12.0261929,3.34002095 12.2804781,3.59430491 C12.5347634,3.84859018 12.5771429,4.23001562 12.4923822,4.56906319 C12.4076208,4.86572797 12.5771437,5.16239438 12.8314282,5.24715505 L12.8314216,5.2471616 Z M11.8142838,6.22191987 C11.6023797,6.13715839 11.4328568,6.09477757 11.5599986,5.84049279 C11.8142838,5.20478208 11.8142838,4.65383204 11.5599986,4.27240496 C11.0514297,3.55193194 9.65287135,3.5943131 8.08478024,4.27240496 C8.08478024,4.27240496 7.57621134,4.48430907 7.70335316,4.10288199 C7.95763842,3.29764668 7.91525727,2.66193597 7.53383019,2.2805138 C6.68621537,1.43289897 4.39764797,2.32289462 2.44814124,4.27241641 C1.00719522,5.75574359 0.159582028,7.28144373 0.159582028,8.63763727 C0.159582028,11.2228694 3.4652823,12.7909606 6.68622355,12.7909606 C10.9243059,12.7909606 13.7214356,10.3328833 13.7214356,8.38336019 C13.7214356,7.19669943 12.7042978,6.51861248 11.8143084,6.22193952 L11.8142838,6.22191987 Z M6.68621537,11.8585589 C4.10098319,12.1128441 1.89718301,10.9261817 1.72766495,9.2733267 C1.55814199,7.57809705 3.50765363,6.01000594 6.09288581,5.75572885 C8.67811798,5.50144359 10.8819182,6.68810598 11.0514362,8.34096103 C11.2209592,10.0361907 9.27144754,11.6042818 6.68621537,11.8585589 Z" id="形状"></path>
                    <path d="M6.94048917,7.02715027 C5.71144727,6.68810434 4.31287749,7.32381505 3.80430695,8.383334 C3.25335691,9.48523409 3.80430695,10.7142727 5.03334886,11.0957047 C6.30477192,11.5195129 7.8304786,10.8838006 8.33904913,9.69713984 C8.84761803,8.5528586 8.21190683,7.36620112 6.94048426,7.02714864 L6.94048917,7.02715027 Z M6.00811205,9.86665953 C5.75382678,10.2480866 5.24525789,10.4599907 4.82145129,10.2480866 C4.44002421,10.0785636 4.3128824,9.6123759 4.56716603,9.23094882 C4.82145129,8.84952174 5.33002019,8.67999878 5.71144727,8.84952174 C6.1352555,8.97666405 6.26239731,9.44285294 6.00811205,9.86665953 Z" id="形状"></path>
                </g>
            </g>
        </g>
    </g>
</svg>