<?xml version="1.0" encoding="UTF-8"?>
<svg width="14px" height="14px" viewBox="0 0 14 14" version="1.1" xmlns="http://www.w3.org/2000/svg" xmlns:xlink="http://www.w3.org/1999/xlink">
    <!-- Generator: Sketch 59 (86127) - https://sketch.com -->
    <title>GoogleMaterial ic collections 48px</title>
    <desc>Created with Sketch.</desc>
    <g id="盲盒活动" stroke="none" stroke-width="1" fill="none" fill-rule="evenodd">
        <g id="Home" transform="translate(-130.000000, -495.000000)" fill="#333333" fill-rule="nonzero">
            <g id="GoogleMaterial-ic-collections-48px" transform="translate(130.000000, 495.000000)">
                <path d="M13.7544085,9.70177224 L13.7544085,1.59649965 C13.7544085,0.850138603 13.1498898,0.245621412 12.4035303,0.245621412 L4.29825771,0.245621412 C3.55189666,0.245621412 2.94737947,0.850140187 2.94737947,1.59649965 L2.94737947,9.70177224 C2.94737947,10.4481333 3.55189824,11.0526505 4.29825771,11.0526505 L12.4035303,11.0526505 C13.1498913,11.0526505 13.7544085,10.4481317 13.7544085,9.70177224 Z M6.3245806,7.00000943 L7.69572202,8.83045543 L9.70177699,6.3245806 L12.4035398,9.70177224 L4.2982672,9.70177224 L6.32458535,7.00000943 L6.3245806,7.00000943 Z M0.245626161,2.94737314 L0.245626161,12.4035192 C0.245626161,13.1498803 0.850144936,13.7543975 1.5965044,13.7543975 L11.0526505,13.7543975 L11.0526505,12.4035192 L1.5965044,12.4035192 L1.5965044,2.94737314 L0.245626161,2.94737314 Z" id="形状"></path>
            </g>
        </g>
    </g>
</svg>