<?xml version="1.0" encoding="UTF-8"?>
<svg width="40px" height="38px" viewBox="0 0 40 38" version="1.1" xmlns="http://www.w3.org/2000/svg" xmlns:xlink="http://www.w3.org/1999/xlink">
    <!-- Generator: Sketch 59 (86127) - https://sketch.com -->
    <title>icn-metamask</title>
    <desc>Created with Sketch.</desc>
    <g id="盲盒活动" stroke="none" stroke-width="1" fill="none" fill-rule="evenodd">
        <g id="连接钱包" transform="translate(-73.000000, -473.000000)" fill-rule="nonzero">
            <g id="icn-metamask" transform="translate(73.000000, 473.000000)">
                <polygon id="路径" fill="#E2761B" points="37.8973878 0.664242953 22.3853776 12.1842564 25.2533809 5.3869047 37.89738 0.664242953"></polygon>
                <path d="M2.0866704,0.664242953 L17.473368,12.2935924 L14.7466968,5.3869047 L2.0866704,0.664242953 L2.0866704,0.664242953 Z M32.3160415,27.3696256 L28.1853726,33.6989689 L37.0253829,36.1309717 L39.5653859,27.5096336 L32.3160415,27.3696256 L32.3160415,27.3696256 Z M0.450652868,27.5096258 L2.97598784,36.1309639 L11.8159981,33.6989611 L7.682673,27.3696178 L0.450652868,27.5096179 L0.450652868,27.5096258 Z" id="形状" fill="#E4761B"></path>
                <path d="M11.3160288,16.6749139 L8.85335796,20.4002503 L17.6307119,20.7909187 L17.3187116,11.3589156 L11.3160483,16.6749374 L11.3160288,16.6749139 Z M28.666713,16.6749139 L22.586706,11.2482279 L22.3853725,20.7895672 L31.1467109,20.4002335 L28.666708,16.6748971 L28.666713,16.6749139 Z M11.8147012,33.6989181 L17.0840433,31.1255831 L12.533374,27.573579 L11.8160411,33.7002658 L11.8147012,33.6989181 Z M22.9000579,31.1269151 L28.1840562,33.6989181 L27.4520554,27.5722313 L22.9000579,31.1269034 L22.9000579,31.1269151 Z" id="形状" fill="#E4761B"></path>
                <path d="M28.1853844,33.6989572 L22.9000266,31.1256221 L23.3213592,34.5722941 L23.2733591,36.0216278 L28.1853844,33.6989572 L28.1853844,33.6989572 Z M11.8146907,33.6989572 L16.7266992,36.0216278 L16.6946991,34.5722941 L17.0840328,31.1269581 L11.8146907,33.6989611 L11.8146907,33.6989572 Z" id="形状" fill="#D7C1B3"></path>
                <path d="M16.8040039,25.2962911 L12.4079832,24.0029576 L15.5106548,22.582956 L16.8040039,25.2962911 L16.8040039,25.2962911 Z M23.180027,25.2962911 L24.4733605,22.582956 L27.5933641,24.0016256 L23.180027,25.2949591 L23.180027,25.2962911 Z" id="形状" fill="#233447"></path>
                <path d="M11.8146622,33.6989572 L12.5639951,27.3696139 L7.68398941,27.509614 L11.8146583,33.6989572 L11.8146622,33.6989572 Z M27.4360007,27.3696139 L28.1840094,33.6989572 L32.3160064,27.509614 L27.4360007,27.3696139 L27.4360007,27.3696139 Z M31.1466886,20.4002698 L22.3853425,20.7909382 L23.1960114,25.2962951 L24.4893449,22.5829599 L27.6080165,24.0016295 L31.1466886,20.4016253 L31.1466886,20.4002698 Z M12.406659,24.001606 L15.5239946,22.5829364 L16.8039961,25.2962716 L17.6293291,20.7895867 L8.85197514,20.400253 L12.4066472,24.0015892 L12.406659,24.001606 Z" id="形状" fill="#CD6116"></path>
                <path d="M8.85332944,20.4002698 L12.5333349,27.5722704 L12.4080015,24.0015982 L8.85332944,20.401594 L8.85332944,20.4002698 Z M27.6080009,24.001606 L27.4520007,27.5722782 L31.146673,20.4002776 L27.6080009,24.0016139 L27.6080009,24.001606 Z M17.6306455,20.7896023 L16.8039766,25.2962872 L17.8333098,30.6123091 L18.0666433,23.6123009 L17.6306428,20.7909656 L17.6306455,20.7896023 Z M22.3852995,20.7895906 L21.963967,23.5962735 L22.150634,30.6122973 L23.1959672,25.2962755 L22.3852983,20.7895906 L22.3852995,20.7895906 Z" id="形状" fill="#E4751F"></path>
                <path d="M23.1960426,25.2962911 L22.1507094,30.612313 L22.9000423,31.1269815 L27.4520398,27.5723094 L27.6080399,24.0016373 L23.1947145,25.2949708 L23.1960426,25.2962911 Z M12.4079949,24.0016217 L12.5320224,27.5722938 L17.085348,31.1269659 L17.8320168,30.6122973 L16.8040156,25.2962755 L12.4079949,24.002942 L12.4079949,24.0016217 Z" id="形状" fill="#F6851B"></path>
                <polygon id="路径" fill="#C0AD9E" points="23.2733474 36.0216161 23.3213475 34.5722824 22.930679 34.228282 17.0533284 34.228282 16.6946612 34.5722824 16.7266613 36.0216161 11.8146634 33.6989455 13.5306654 35.1016151 17.0066694 37.5189499 22.9773404 37.5189499 26.4706765 35.1016151 28.1840105 33.6989455 23.2733408 36.0216161"></polygon>
                <polygon id="路径" fill="#161616" points="22.9000266 31.126962 22.1506937 30.6122934 17.833345 30.6122934 17.0840121 31.126962 16.6946784 34.572298 17.0533456 34.2282976 22.9306962 34.2282976 23.3200299 34.572298 22.9000294 31.126962"></polygon>
                <path d="M38.552037,12.9335814 L39.8773706,6.57224592 L37.8973683,0.664231234 L22.9000071,11.7949082 L28.6680216,16.6749139 L36.8213514,19.0602487 L38.6306856,16.9549143 L37.8506847,16.3949136 L39.0973541,15.2562443 L38.130685,14.5069114 L39.3786864,13.5562423 L38.5520175,12.9335736 L38.552037,12.9335814 Z M0.122636861,6.57224592 L1.44798997,12.9322533 L0.606656956,13.556254 L1.85332638,14.5069231 L0.9026573,15.256256 L2.14932672,16.3935894 L1.36932581,16.9549221 L3.16265993,19.0602565 L11.3159897,16.6735858 L17.0840043,11.7935801 L2.08797118,0.664231234 L0.122636861,6.57091779 L0.122636861,6.57224592 Z" id="形状" fill="#763D16"></path>
                <path d="M36.821371,19.0602683 L28.6680412,16.6735975 L31.1480441,20.4002698 L27.4520398,27.5722704 L32.3160298,27.5096035 L39.5653742,27.5096035 L36.821371,19.0602577 L36.821371,19.0602683 Z M11.3159897,16.6749335 L3.16265993,19.0602683 L0.450656774,27.509614 L7.6839855,27.509614 L12.531999,27.5722809 L8.85199468,20.4002804 L11.3159975,16.6749335 L11.3159897,16.6749335 Z M22.3853385,20.7895867 L22.9000071,11.7949278 L25.2693419,5.38691251 L14.7466734,5.38691251 L17.0840082,11.7949278 L17.6306768,20.7895867 L17.8173438,23.626922 L17.8333438,30.6122817 L22.1506926,30.6122817 L22.1826926,23.6282892 L22.3853596,20.7909539 L22.3853385,20.7895867 Z" id="形状" fill="#F6851B"></path>
            </g>
        </g>
    </g>
</svg>