<?xml version="1.0" encoding="UTF-8"?>
<svg width="20px" height="21px" viewBox="0 0 20 21" version="1.1" xmlns="http://www.w3.org/2000/svg" xmlns:xlink="http://www.w3.org/1999/xlink">
    <!-- Generator: Sketch 59 (86127) - https://sketch.com -->
    <title>首 页</title>
    <desc>Created with Sketch.</desc>
    <g id="盲盒活动" stroke="none" stroke-width="1" fill="none" fill-rule="evenodd">
        <g id="切换" transform="translate(-21.000000, -89.000000)" fill-rule="nonzero">
            <g id="首-页" transform="translate(21.000000, 89.000000)">
                <polygon id="路径" fill="#FED836" points="11.5116413 1.74422351 7.67442753 1.74422351 15.3488351 10.6977023 14.0697658 10.6977023 14.0697658 17.0930386 11.5116233 17.0930386 11.5116233 19.6511811 16.6279083 19.6511811 16.6279083 11.9767736 17.9069776 11.9767736 19.1860469 10.6977043"></polygon>
                <path d="M15.4652506,20.9302613 L11.6229205,20.9302613 L11.6229205,20.9302613 C11.2294502,20.9311683 10.9097424,20.6129368 10.908829,20.2194685 C10.90881,20.2112415 10.9089334,20.2030148 10.9091993,20.194792 L10.9091993,13.8672465 L8.71047579,13.8672465 L8.71047579,20.194792 L8.71047578,20.1947917 C8.72319139,20.5880562 8.41469455,20.9171692 8.0214301,20.9298839 C8.01363418,20.9302613 8.00583465,20.9302613 7.99803469,20.9302613 L4.21454192,20.9302613 C3.03779836,20.9302613 2.07721385,19.9389777 2.07721385,18.7251371 L2.07721385,12.2684054 L1.6743064,12.2684054 C0.744423597,12.2684054 6.12448328e-06,11.5009647 6.12448328e-06,10.5416632 C6.12448328e-06,10.0939883 0.154773347,9.67957118 0.46430899,9.35980337 L7.68720439,1.46539557 L7.68720424,1.46539573 C8.82272772,0.215990932 10.7560959,0.123669967 12.0055087,1.25919345 C12.0336538,1.28477308 12.061319,1.31087593 12.08849,1.337488 C12.1191877,1.40144137 12.1511643,1.43341815 12.2125597,1.46539493 L19.4341761,9.35980273 C20.0852213,10.0313131 20.0545236,11.1185217 19.4034784,11.7900381 L19.4034784,11.7900381 C19.0912851,12.1016838 18.6665415,12.2741646 18.2254557,12.2684107 L17.6051082,12.2684107 L17.6051082,18.7251425 C17.6051082,19.9402582 16.6458067,20.9302613 15.466501,20.9302613 L15.4652506,20.9302613 Z M12.3660609,19.4593264 L15.4652506,19.4593264 L15.4652506,19.4593264 C15.8800794,19.446876 16.2098559,19.1069003 16.2096681,18.6918857 L16.2096681,11.5342229 C16.2096681,11.1198038 16.5192033,10.800038 16.9221088,10.800038 L18.254899,10.800038 C18.348271,10.800038 18.441643,10.7360846 18.4723411,10.6401545 C18.5030388,10.5442244 18.5030388,10.4482942 18.4096668,10.3523635 L11.1573528,2.48993244 L11.1573528,2.48993249 C10.5543946,1.81422113 9.51782731,1.75524595 8.84211395,2.35820394 C8.81760475,2.38007426 8.79375826,2.40267625 8.77060667,2.42597893 C8.73990896,2.42597893 8.70921145,2.45795571 8.70921145,2.48993229 L1.48759513,10.3510842 L1.48759514,10.3510842 C1.39420075,10.4497338 1.39420075,10.6041785 1.48759512,10.7028288 C1.55026941,10.7667822 1.61166483,10.7667822 1.67433912,10.7667822 L2.82038497,10.7667822 C3.22329241,10.7667822 3.53282566,11.08655 3.53282566,11.5009671 L3.53282566,18.6931648 L3.53282563,18.6932451 C3.53268229,19.1082598 3.86249425,19.448201 4.27732504,19.460608 L7.34581698,19.460608 L7.34581698,13.8672493 C7.34581698,13.035855 7.99686225,12.3963194 8.77070036,12.3963194 L10.9707029,12.3963194 C11.7765158,12.3963194 12.3981444,13.0678298 12.3981444,13.8672493 L12.3661677,19.460608 L12.3660609,19.4593264 Z" id="形状" fill="#000000"></path>
            </g>
        </g>
    </g>
</svg>